REM DIRINDEX 1\5,1\2\6,1\2\7,1\3\8,1\3\9,1\4\10,1\4\11,1\4\12
REM DIRNAME folder01,folder02,folder03,folder04,folder05,folder06,folder07,folder08,folder09,folder10,folder11,folder12
TITLE ""
FILE "EJE_DB3000_5th_1A_25.mp3" MP3
  TRACK 01 AUDIO
    TITLE "0:"
    INDEX 01 00:00:00
  TRACK 02 AUDIO
    TITLE "10:cjc026_07548"
    INDEX 01 00:00:13
  TRACK 03 AUDIO
    TITLE "0:"
    INDEX 01 00:01:34
  TRACK 04 AUDIO
    TITLE "11:cjc026_07549"
    INDEX 01 00:02:08
  TRACK 05 AUDIO
    TITLE "0:"
    INDEX 01 00:03:35
  TRACK 06 AUDIO
    TITLE "12:cjc026_07550"
    INDEX 01 00:04:11
  TRACK 07 AUDIO
    TITLE "0:"
    INDEX 01 00:05:32
  TRACK 08 AUDIO
    TITLE "10:cjc026_07551"
    INDEX 01 00:06:06
  TRACK 09 AUDIO
    TITLE "0:"
    INDEX 01 00:07:09
  TRACK 10 AUDIO
    TITLE "11:cjc026_07552"
    INDEX 01 00:07:60
  TRACK 11 AUDIO
    TITLE "0:"
    INDEX 01 00:08:64
  TRACK 12 AUDIO
    TITLE "12:cjc026_07553"
    INDEX 01 00:09:38
  TRACK 13 AUDIO
    TITLE "0:"
    INDEX 01 00:10:43
  TRACK 14 AUDIO
    TITLE "10:cjc026_07554"
    INDEX 01 00:11:19
  TRACK 15 AUDIO
    TITLE "0:"
    INDEX 01 00:12:34
  TRACK 16 AUDIO
    TITLE "11:cjc026_07555"
    INDEX 01 00:13:08
  TRACK 17 AUDIO
    TITLE "0:"
    INDEX 01 00:14:35
  TRACK 18 AUDIO
    TITLE "12:cjc026_07556"
    INDEX 01 00:15:13
  TRACK 19 AUDIO
    TITLE "0:"
    INDEX 01 00:16:28
  TRACK 20 AUDIO
    TITLE "10:cjc026_07557"
    INDEX 01 00:17:02
  TRACK 21 AUDIO
    TITLE "0:"
    INDEX 01 00:18:15
  TRACK 22 AUDIO
    TITLE "11:cjc026_07558"
    INDEX 01 00:18:64
  TRACK 23 AUDIO
    TITLE "0:"
    INDEX 01 00:20:18
  TRACK 24 AUDIO
    TITLE "12:cjc026_07559"
    INDEX 01 00:20:69
  TRACK 25 AUDIO
    TITLE "0:"
    INDEX 01 00:22:05
  TRACK 26 AUDIO
    TITLE "10:cjc026_07560"
    INDEX 01 00:22:54
  TRACK 27 AUDIO
    TITLE "0:"
    INDEX 01 00:24:16
  TRACK 28 AUDIO
    TITLE "11:cjc026_07561"
    INDEX 01 00:24:65
  TRACK 29 AUDIO
    TITLE "0:"
    INDEX 01 00:26:36
  TRACK 30 AUDIO
    TITLE "12:cjc026_07562"
    INDEX 01 00:27:10
  TRACK 31 AUDIO
    TITLE "0:"
    INDEX 01 00:28:45
  TRACK 32 AUDIO
    TITLE "10:cjc026_07563"
    INDEX 01 00:29:21
  TRACK 33 AUDIO
    TITLE "0:"
    INDEX 01 00:30:32
  TRACK 34 AUDIO
    TITLE "11:cjc026_07564"
    INDEX 01 00:31:06
  TRACK 35 AUDIO
    TITLE "0:"
    INDEX 01 00:32:35
  TRACK 36 AUDIO
    TITLE "12:cjc026_07565"
    INDEX 01 00:33:11
  TRACK 37 AUDIO
    TITLE "0:"
    INDEX 01 00:34:20
  TRACK 38 AUDIO
    TITLE "10:cjc026_07566"
    INDEX 01 00:34:69
  TRACK 39 AUDIO
    TITLE "0:"
    INDEX 01 00:36:03
  TRACK 40 AUDIO
    TITLE "11:cjc026_07567"
    INDEX 01 00:36:54
  TRACK 41 AUDIO
    TITLE "0:"
    INDEX 01 00:38:30
  TRACK 42 AUDIO
    TITLE "12:cjc026_07568"
    INDEX 01 00:39:05
  TRACK 43 AUDIO
    TITLE "0:"
    INDEX 01 00:40:15
  TRACK 44 AUDIO
    TITLE "10:cjc026_07569"
    INDEX 01 00:40:66
  TRACK 45 AUDIO
    TITLE "0:"
    INDEX 01 00:41:67
  TRACK 46 AUDIO
    TITLE "11:cjc026_07570"
    INDEX 01 00:42:41
  TRACK 47 AUDIO
    TITLE "0:"
    INDEX 01 00:43:74
  TRACK 48 AUDIO
    TITLE "12:cjc026_07571"
    INDEX 01 00:44:50
  TRACK 49 AUDIO
    TITLE "0:"
    INDEX 01 00:45:51
  TRACK 50 AUDIO
    TITLE "10:cjc026_07572"
    INDEX 01 00:46:23
  TRACK 51 AUDIO
    TITLE "0:"
    INDEX 01 00:47:27
  TRACK 52 AUDIO
    TITLE "11:cjc026_07573"
    INDEX 01 00:48:00
  TRACK 53 AUDIO
    TITLE "0:"
    INDEX 01 00:49:69
  TRACK 54 AUDIO
    TITLE "12:cjc026_07574"
    INDEX 01 00:50:42
  TRACK 55 AUDIO
    TITLE "0:"
    INDEX 01 00:51:42
  TRACK 56 AUDIO
    TITLE "10:cjc026_07575"
    INDEX 01 00:52:18
  TRACK 57 AUDIO
    TITLE "0:"
    INDEX 01 00:53:25
  TRACK 58 AUDIO
    TITLE "11:cjc026_07576"
    INDEX 01 00:53:74
  TRACK 59 AUDIO
    TITLE "0:"
    INDEX 01 00:55:14
  TRACK 60 AUDIO
    TITLE "12:cjc026_07577"
    INDEX 01 00:55:65
  TRACK 61 AUDIO
    TITLE "0:"
    INDEX 01 00:56:71
  TRACK 62 AUDIO
    TITLE "10:cjc026_07578"
    INDEX 01 00:57:48
  TRACK 63 AUDIO
    TITLE "0:"
    INDEX 01 00:58:66
  TRACK 64 AUDIO
    TITLE "11:cjc026_07579"
    INDEX 01 00:59:38
  TRACK 65 AUDIO
    TITLE "0:"
    INDEX 01 01:01:11
  TRACK 66 AUDIO
    TITLE "12:cjc026_07580"
    INDEX 01 01:01:62
  TRACK 67 AUDIO
    TITLE "0:"
    INDEX 01 01:03:02
  TRACK 68 AUDIO
    TITLE "10:cjc026_07581"
    INDEX 01 01:03:55
  TRACK 69 AUDIO
    TITLE "0:"
    INDEX 01 01:04:50
  TRACK 70 AUDIO
    TITLE "11:cjc026_07582"
    INDEX 01 01:05:30
  TRACK 71 AUDIO
    TITLE "0:"
    INDEX 01 01:06:47
  TRACK 72 AUDIO
    TITLE "12:cjc026_07583"
    INDEX 01 01:07:23
  TRACK 73 AUDIO
    TITLE "0:"
    INDEX 01 01:08:21
